<svg xmlns="http://www.w3.org/2000/svg" xmlns:xlink="http://www.w3.org/1999/xlink" width="300" zoomAndPan="magnify" viewBox="0 0 224.87999 74.999997" height="100" preserveAspectRatio="xMidYMid meet" version="1.0"><defs><g/></defs><g fill="#000000" fill-opacity="1"><g transform="translate(0, 45.745595)"><g><path d="M 7.8125 0.296875 C 6.4375 0.296875 5.101562 0.109375 3.8125 -0.265625 C 2.519531 -0.640625 1.484375 -1.125 0.703125 -1.71875 L 2.078125 -4.765625 C 2.828125 -4.222656 3.71875 -3.785156 4.75 -3.453125 C 5.78125 -3.117188 6.8125 -2.953125 7.84375 -2.953125 C 8.988281 -2.953125 9.835938 -3.117188 10.390625 -3.453125 C 10.941406 -3.796875 11.21875 -4.253906 11.21875 -4.828125 C 11.21875 -5.242188 11.054688 -5.585938 10.734375 -5.859375 C 10.410156 -6.128906 9.992188 -6.347656 9.484375 -6.515625 C 8.972656 -6.679688 8.285156 -6.867188 7.421875 -7.078125 C 6.085938 -7.390625 4.992188 -7.703125 4.140625 -8.015625 C 3.296875 -8.335938 2.566406 -8.847656 1.953125 -9.546875 C 1.347656 -10.242188 1.046875 -11.175781 1.046875 -12.34375 C 1.046875 -13.351562 1.320312 -14.269531 1.875 -15.09375 C 2.425781 -15.925781 3.253906 -16.582031 4.359375 -17.0625 C 5.460938 -17.539062 6.816406 -17.78125 8.421875 -17.78125 C 9.535156 -17.78125 10.625 -17.644531 11.6875 -17.375 C 12.757812 -17.113281 13.691406 -16.734375 14.484375 -16.234375 L 13.234375 -13.171875 C 11.617188 -14.085938 10.003906 -14.546875 8.390625 -14.546875 C 7.265625 -14.546875 6.429688 -14.359375 5.890625 -13.984375 C 5.347656 -13.617188 5.078125 -13.140625 5.078125 -12.546875 C 5.078125 -11.941406 5.390625 -11.492188 6.015625 -11.203125 C 6.640625 -10.910156 7.59375 -10.625 8.875 -10.34375 C 10.207031 -10.03125 11.296875 -9.710938 12.140625 -9.390625 C 12.992188 -9.078125 13.722656 -8.578125 14.328125 -7.890625 C 14.929688 -7.210938 15.234375 -6.289062 15.234375 -5.125 C 15.234375 -4.125 14.953125 -3.210938 14.390625 -2.390625 C 13.835938 -1.566406 13.003906 -0.910156 11.890625 -0.421875 C 10.773438 0.0546875 9.414062 0.296875 7.8125 0.296875 Z M 7.8125 0.296875 "/></g></g></g><g fill="#000000" fill-opacity="1"><g transform="translate(15.938973, 45.745595)"><g><path d="M 18.109375 -17.484375 L 18.109375 0 L 14.0625 0 L 14.0625 -7.171875 L 6.125 -7.171875 L 6.125 0 L 2.078125 0 L 2.078125 -17.484375 L 6.125 -17.484375 L 6.125 -10.59375 L 14.0625 -10.59375 L 14.0625 -17.484375 Z M 18.109375 -17.484375 "/></g></g></g><g fill="#000000" fill-opacity="1"><g transform="translate(36.125007, 45.745595)"><g><path d="M 15.609375 -3.25 L 15.609375 0 L 2.078125 0 L 2.078125 -17.484375 L 15.296875 -17.484375 L 15.296875 -14.234375 L 6.09375 -14.234375 L 6.09375 -10.4375 L 14.21875 -10.4375 L 14.21875 -7.296875 L 6.09375 -7.296875 L 6.09375 -3.25 Z M 15.609375 -3.25 "/></g></g></g><g fill="#000000" fill-opacity="1"><g transform="translate(52.888407, 45.745595)"><g><path d="M 28.5 -17.484375 L 22.78125 0 L 18.4375 0 L 14.59375 -11.84375 L 10.625 0 L 6.296875 0 L 0.546875 -17.484375 L 4.75 -17.484375 L 8.6875 -5.203125 L 12.8125 -17.484375 L 16.5625 -17.484375 L 20.5625 -5.09375 L 24.640625 -17.484375 Z M 28.5 -17.484375 "/></g></g></g><g fill="#000000" fill-opacity="1"><g transform="translate(81.943297, 45.745595)"><g><path d="M 2.078125 -17.484375 L 6.125 -17.484375 L 6.125 0 L 2.078125 0 Z M 2.078125 -17.484375 "/></g></g></g><g fill="#000000" fill-opacity="1"><g transform="translate(90.137632, 45.745595)"><g><path d="M 2.078125 -17.484375 L 6.125 -17.484375 L 6.125 -3.296875 L 14.890625 -3.296875 L 14.890625 0 L 2.078125 0 Z M 2.078125 -17.484375 "/></g></g></g><g fill="#000000" fill-opacity="1"><g transform="translate(105.227185, 45.745595)"><g><path d="M 2.078125 -17.484375 L 6.125 -17.484375 L 6.125 -3.296875 L 14.890625 -3.296875 L 14.890625 0 L 2.078125 0 Z M 2.078125 -17.484375 "/></g></g></g><g fill="#000000" fill-opacity="1"><g transform="translate(120.316738, 45.745595)"><g><path d="M 14.921875 -9.09375 C 15.921875 -8.78125 16.703125 -8.25 17.265625 -7.5 C 17.828125 -6.757812 18.109375 -5.847656 18.109375 -4.765625 C 18.109375 -3.234375 17.515625 -2.054688 16.328125 -1.234375 C 15.140625 -0.410156 13.40625 0 11.125 0 L 2.078125 0 L 2.078125 -17.484375 L 10.625 -17.484375 C 12.75 -17.484375 14.378906 -17.078125 15.515625 -16.265625 C 16.660156 -15.453125 17.234375 -14.34375 17.234375 -12.9375 C 17.234375 -12.09375 17.03125 -11.335938 16.625 -10.671875 C 16.21875 -10.003906 15.648438 -9.476562 14.921875 -9.09375 Z M 6.09375 -14.4375 L 6.09375 -10.3125 L 10.125 -10.3125 C 11.125 -10.3125 11.878906 -10.488281 12.390625 -10.84375 C 12.910156 -11.195312 13.171875 -11.710938 13.171875 -12.390625 C 13.171875 -13.078125 12.910156 -13.585938 12.390625 -13.921875 C 11.878906 -14.265625 11.125 -14.4375 10.125 -14.4375 Z M 10.8125 -3.046875 C 11.882812 -3.046875 12.691406 -3.21875 13.234375 -3.5625 C 13.773438 -3.914062 14.046875 -4.460938 14.046875 -5.203125 C 14.046875 -6.648438 12.96875 -7.375 10.8125 -7.375 L 6.09375 -7.375 L 6.09375 -3.046875 Z M 10.8125 -3.046875 "/></g></g></g><g fill="#000000" fill-opacity="1"><g transform="translate(139.428505, 45.745595)"><g><path d="M 15.609375 -3.25 L 15.609375 0 L 2.078125 0 L 2.078125 -17.484375 L 15.296875 -17.484375 L 15.296875 -14.234375 L 6.09375 -14.234375 L 6.09375 -10.4375 L 14.21875 -10.4375 L 14.21875 -7.296875 L 6.09375 -7.296875 L 6.09375 -3.25 Z M 15.609375 -3.25 "/></g></g></g><g fill="#000000" fill-opacity="1"><g transform="translate(156.191905, 45.745595)"><g><path d="M 3.265625 0.203125 C 2.585938 0.203125 2.015625 -0.03125 1.546875 -0.5 C 1.078125 -0.96875 0.84375 -1.550781 0.84375 -2.25 C 0.84375 -2.96875 1.078125 -3.546875 1.546875 -3.984375 C 2.015625 -4.421875 2.585938 -4.640625 3.265625 -4.640625 C 3.953125 -4.640625 4.53125 -4.421875 5 -3.984375 C 5.46875 -3.546875 5.703125 -2.96875 5.703125 -2.25 C 5.703125 -1.550781 5.46875 -0.96875 5 -0.5 C 4.53125 -0.03125 3.953125 0.203125 3.265625 0.203125 Z M 3.265625 0.203125 "/></g></g></g><g fill="#000000" fill-opacity="1"><g transform="translate(162.737373, 45.745595)"><g><path d="M 18.109375 -17.484375 L 18.109375 0 L 14.796875 0 L 6.078125 -10.625 L 6.078125 0 L 2.078125 0 L 2.078125 -17.484375 L 5.421875 -17.484375 L 14.109375 -6.875 L 14.109375 -17.484375 Z M 18.109375 -17.484375 "/></g></g></g><g fill="#000000" fill-opacity="1"><g transform="translate(182.923408, 45.745595)"><g><path d="M 10.46875 -6.203125 L 10.46875 0 L 6.421875 0 L 6.421875 -6.25 L -0.34375 -17.484375 L 3.953125 -17.484375 L 8.625 -9.71875 L 13.296875 -17.484375 L 17.265625 -17.484375 Z M 10.46875 -6.203125 "/></g></g></g><g fill="#000000" fill-opacity="1"><g transform="translate(199.81171, 45.745595)"><g><path d="M 10.4375 0.296875 C 8.65625 0.296875 7.046875 -0.0859375 5.609375 -0.859375 C 4.171875 -1.640625 3.035156 -2.710938 2.203125 -4.078125 C 1.378906 -5.453125 0.96875 -7.007812 0.96875 -8.75 C 0.96875 -10.476562 1.378906 -12.03125 2.203125 -13.40625 C 3.035156 -14.78125 4.171875 -15.851562 5.609375 -16.625 C 7.046875 -17.394531 8.664062 -17.78125 10.46875 -17.78125 C 11.976562 -17.78125 13.347656 -17.515625 14.578125 -16.984375 C 15.804688 -16.453125 16.832031 -15.6875 17.65625 -14.6875 L 15.0625 -12.296875 C 13.882812 -13.660156 12.421875 -14.34375 10.671875 -14.34375 C 9.585938 -14.34375 8.617188 -14.101562 7.765625 -13.625 C 6.921875 -13.15625 6.257812 -12.492188 5.78125 -11.640625 C 5.3125 -10.796875 5.078125 -9.832031 5.078125 -8.75 C 5.078125 -7.664062 5.3125 -6.695312 5.78125 -5.84375 C 6.257812 -5 6.921875 -4.335938 7.765625 -3.859375 C 8.617188 -3.378906 9.585938 -3.140625 10.671875 -3.140625 C 12.421875 -3.140625 13.882812 -3.832031 15.0625 -5.21875 L 17.65625 -2.828125 C 16.832031 -1.804688 15.800781 -1.03125 14.5625 -0.5 C 13.332031 0.03125 11.957031 0.296875 10.4375 0.296875 Z M 10.4375 0.296875 "/></g></g></g></svg>